HIERARCHY
ROOT hip
{
  OFFSET 0 90.174 2.4664
  CHANNELS 6 Xposition Yposition Zposition Zrotation Xrotation Yrotation
  JOINT abdomen
  {
    OFFSET 0 -1.186 -1.5018
    CHANNELS 6 Xposition Yposition Zposition Zrotation Xrotation Yrotation
    JOINT abdomen2
    {
      OFFSET 0 9.964 0.2134
      CHANNELS 6 Xposition Yposition Zposition Zrotation Xrotation Yrotation
      JOINT chest
      {
        OFFSET 0 13.134 -3.2573
        CHANNELS 6 Xposition Yposition Zposition Zrotation Xrotation Yrotation
        JOINT neck
        {
          OFFSET 0 20.686 -1.6905
          CHANNELS 6 Xposition Yposition Zposition Zrotation Xrotation Yrotation
          JOINT head
          {
            OFFSET 0 7.238 -0.1237
            CHANNELS 6 Xposition Yposition Zposition Zrotation Xrotation Yrotation
            End Site
            {
              OFFSET 0 0 0
            }
          }
        }
        JOINT lCollar
        {
          OFFSET 1.7069 20.075 5.0056
          CHANNELS 6 Xposition Yposition Zposition Zrotation Xrotation Yrotation
          JOINT lShldr
          {
            OFFSET 13.6458 -0.047 -4.849
            CHANNELS 6 Xposition Yposition Zposition Zrotation Xrotation Yrotation
            JOINT lForeArm
            {
              OFFSET 28.3255 -0.9759 2.2888
              CHANNELS 6 Xposition Yposition Zposition Zrotation Xrotation Yrotation
              JOINT lHand
              {
                OFFSET 22.1583 -0.53 10.8316
                CHANNELS 6 Xposition Yposition Zposition Zrotation Xrotation Yrotation
                JOINT lThumb1
                {
                  OFFSET 0.786 0.112 2.5817
                  CHANNELS 6 Xposition Yposition Zposition Zrotation Xrotation Yrotation
                  JOINT lThumb2
                  {
                    OFFSET 0.3601 -0.878 4.2331
                    CHANNELS 6 Xposition Yposition Zposition Zrotation Xrotation Yrotation
                    JOINT lThumb2_End
                    {
                      OFFSET 1.8127 -1.216 2.2227
                      CHANNELS 6 Xposition Yposition Zposition Zrotation Xrotation Yrotation
                      End Site
                      {
                        OFFSET 0.0181 -0.0122 0.0222
                      }
                    }
                  }
                }
                JOINT lCarpal1
                {
                  OFFSET 0.9571 1.114 1.7695
                  CHANNELS 6 Xposition Yposition Zposition Zrotation Xrotation Yrotation
                  JOINT lIndex1
                  {
                    OFFSET 4.1246 0.487 4.1451
                    CHANNELS 6 Xposition Yposition Zposition Zrotation Xrotation Yrotation
                    JOINT lIndex2
                    {
                      OFFSET 3.4052 -1.454 2.7682
                      CHANNELS 6 Xposition Yposition Zposition Zrotation Xrotation Yrotation
                      JOINT lIndex2_End
                      {
                        OFFSET 1.4531 -1.795 1.2713
                        CHANNELS 6 Xposition Yposition Zposition Zrotation Xrotation Yrotation
                        End Site
                        {
                          OFFSET 0.0145 -0.0179 0.0127
                        }
                      }
                    }
                  }
                  JOINT lMid1
                  {
                    OFFSET 5.6954 0.21 2.1184
                    CHANNELS 6 Xposition Yposition Zposition Zrotation Xrotation Yrotation
                    JOINT lMid2
                    {
                      OFFSET 3.9766 -1.54 2.3863
                      CHANNELS 6 Xposition Yposition Zposition Zrotation Xrotation Yrotation
                      JOINT lMid2_End
                      {
                        OFFSET 1.4042 -1.926 1.125
                        CHANNELS 6 Xposition Yposition Zposition Zrotation Xrotation Yrotation
                        End Site
                        {
                          OFFSET 0.014 -0.0193 0.0113
                        }
                      }
                    }
                  }
                }
                JOINT lCarpal2
                {
                  OFFSET 2.0956 0.66 -0.3894
                  CHANNELS 6 Xposition Yposition Zposition Zrotation Xrotation Yrotation
                  JOINT lRing1
                  {
                    OFFSET 5.0395 -0.09 2.4971
                    CHANNELS 6 Xposition Yposition Zposition Zrotation Xrotation Yrotation
                    JOINT lRing2
                    {
                      OFFSET 3.7921 -1.552 1.4806
                      CHANNELS 6 Xposition Yposition Zposition Zrotation Xrotation Yrotation
                      JOINT lRing2_End
                      {
                        OFFSET 1.4655 -1.808 0.9609
                        CHANNELS 6 Xposition Yposition Zposition Zrotation Xrotation Yrotation
                        End Site
                        {
                          OFFSET 0.0147 -0.0181 0.0096
                        }
                      }
                    }
                  }
                  JOINT lPinky1
                  {
                    OFFSET 4.9141 -1.269 0.3591
                    CHANNELS 6 Xposition Yposition Zposition Zrotation Xrotation Yrotation
                    JOINT lPinky2
                    {
                      OFFSET 3.1477 -1.685 0.8462
                      CHANNELS 6 Xposition Yposition Zposition Zrotation Xrotation Yrotation
                      JOINT lPinky2_End
                      {
                        OFFSET 0.8055 -1.585 0.7955
                        CHANNELS 6 Xposition Yposition Zposition Zrotation Xrotation Yrotation
                        End Site
                        {
                          OFFSET 0.0081 -0.0158 0.008
                        }
                      }
                    }
                  }
                }
              }
            }
          }
        }
        JOINT rCollar
        {
          OFFSET -1.7069 20.075 5.0056
          CHANNELS 6 Xposition Yposition Zposition Zrotation Xrotation Yrotation
          JOINT rShldr
          {
            OFFSET -13.6458 -0.047 -4.849
            CHANNELS 6 Xposition Yposition Zposition Zrotation Xrotation Yrotation
            JOINT rForeArm
            {
              OFFSET -28.3255 -0.9759 2.2888
              CHANNELS 6 Xposition Yposition Zposition Zrotation Xrotation Yrotation
              JOINT rHand
              {
                OFFSET -22.1583 -0.53 10.8316
                CHANNELS 6 Xposition Yposition Zposition Zrotation Xrotation Yrotation
                JOINT rThumb1
                {
                  OFFSET -0.786 0.112 2.5817
                  CHANNELS 6 Xposition Yposition Zposition Zrotation Xrotation Yrotation
                  JOINT rThumb2
                  {
                    OFFSET -0.3601 -0.878 4.2331
                    CHANNELS 6 Xposition Yposition Zposition Zrotation Xrotation Yrotation
                    JOINT rThumb2_End
                    {
                      OFFSET -1.8127 -1.216 2.2227
                      CHANNELS 6 Xposition Yposition Zposition Zrotation Xrotation Yrotation
                      End Site
                      {
                        OFFSET -0.0181 -0.0122 0.0222
                      }
                    }
                  }
                }
                JOINT rCarpal1
                {
                  OFFSET -0.9571 1.114 1.7695
                  CHANNELS 6 Xposition Yposition Zposition Zrotation Xrotation Yrotation
                  JOINT rIndex1
                  {
                    OFFSET -4.1246 0.487 4.1451
                    CHANNELS 6 Xposition Yposition Zposition Zrotation Xrotation Yrotation
                    JOINT rIndex2
                    {
                      OFFSET -3.4052 -1.454 2.7682
                      CHANNELS 6 Xposition Yposition Zposition Zrotation Xrotation Yrotation
                      JOINT rIndex2_End
                      {
                        OFFSET -1.4531 -1.795 1.2713
                        CHANNELS 6 Xposition Yposition Zposition Zrotation Xrotation Yrotation
                        End Site
                        {
                          OFFSET -0.0145 -0.018 0.0127
                        }
                      }
                    }
                  }
                  JOINT rMid1
                  {
                    OFFSET -5.6954 0.21 2.1184
                    CHANNELS 6 Xposition Yposition Zposition Zrotation Xrotation Yrotation
                    JOINT rMid2
                    {
                      OFFSET -3.9766 -1.54 2.3863
                      CHANNELS 6 Xposition Yposition Zposition Zrotation Xrotation Yrotation
                      JOINT rMid2_End
                      {
                        OFFSET -1.4042 -1.926 1.125
                        CHANNELS 6 Xposition Yposition Zposition Zrotation Xrotation Yrotation
                        End Site
                        {
                          OFFSET -0.014 -0.0193 0.0113
                        }
                      }
                    }
                  }
                }
                JOINT rCarpal2
                {
                  OFFSET -2.0956 0.66 -0.3894
                  CHANNELS 6 Xposition Yposition Zposition Zrotation Xrotation Yrotation
                  JOINT rRing1
                  {
                    OFFSET -5.0395 -0.09 2.4971
                    CHANNELS 6 Xposition Yposition Zposition Zrotation Xrotation Yrotation
                    JOINT rRing2
                    {
                      OFFSET -3.7921 -1.552 1.4806
                      CHANNELS 6 Xposition Yposition Zposition Zrotation Xrotation Yrotation
                      JOINT rRing2_End
                      {
                        OFFSET -1.4655 -1.808 0.9609
                        CHANNELS 6 Xposition Yposition Zposition Zrotation Xrotation Yrotation
                        End Site
                        {
                          OFFSET -0.0147 -0.0181 0.0096
                        }
                      }
                    }
                  }
                  JOINT rPinky1
                  {
                    OFFSET -4.9141 -1.269 0.3592
                    CHANNELS 6 Xposition Yposition Zposition Zrotation Xrotation Yrotation
                    JOINT rPinky2
                    {
                      OFFSET -3.1477 -1.685 0.8462
                      CHANNELS 6 Xposition Yposition Zposition Zrotation Xrotation Yrotation
                      JOINT rPinky2_End
                      {
                        OFFSET -0.8055 -1.585 0.7955
                        CHANNELS 6 Xposition Yposition Zposition Zrotation Xrotation Yrotation
                        End Site
                        {
                          OFFSET -0.0081 -0.0158 0.008
                        }
                      }
                    }
                  }
                }
              }
            }
          }
        }
      }
    }
  }
  JOINT lThigh
  {
    OFFSET 8.367 -8.2066 0.5982
    CHANNELS 6 Xposition Yposition Zposition Zrotation Xrotation Yrotation
    JOINT lShin
    {
      OFFSET 2.1923 -43.463 -0.4932
      CHANNELS 6 Xposition Yposition Zposition Zrotation Xrotation Yrotation
      JOINT lFoot
      {
        OFFSET 0.7333 -45.8593 -2.6451
        CHANNELS 6 Xposition Yposition Zposition Zrotation Xrotation Yrotation
        End Site
        {
          OFFSET 2.6618 -4.2699 12.3931
        }
      }
    }
  }
  JOINT rThigh
  {
    OFFSET -8.367 -8.2066 0.5982
    CHANNELS 6 Xposition Yposition Zposition Zrotation Xrotation Yrotation
    JOINT rShin
    {
      OFFSET -2.1923 -43.463 -0.4931
      CHANNELS 6 Xposition Yposition Zposition Zrotation Xrotation Yrotation
      JOINT rFoot
      {
        OFFSET -0.7333 -45.8593 -2.6451
        CHANNELS 6 Xposition Yposition Zposition Zrotation Xrotation Yrotation
        End Site
        {
          OFFSET -2.6618 -4.2699 12.3931
        }
      }
    }
  }
}
MOTION
Frames:	4
Frame Time:	0.0333333
-16.7809 0.230804 -10.7619 -90.0421 82.8858 0.0338271 0 -1.186 -1.5018 10.0659 7.15098 0.551977 -4.44089e-016 9.964 0.2134 20.3024 14.2872 -0.178001 0 13.134 -3.2573 20.3024 14.2872 -0.177985 1.77636e-015 20.686 -1.6905 -3.53848 -16.489 19.9069 3.55271e-015 7.238 -0.1237 -1.08792 -42.526 7.97386 1.7069 20.075 5.0056 3.88833 3.14794 41.6322 13.6458 -0.047 -4.849 3.07412 32.2762 -26.4518 28.3255 -0.9759 2.2888 46.2614 -36.6681 -38.9723 22.1583 -0.53 10.8316 16.4335 -4.87335 12.9858 0.786 0.112 2.5817 8.94531e-016 5.96354e-016 -6.36111e-015 0.3601 -0.878 4.2331 1.2921e-015 1.39149e-015 -9.54166e-015 1.8127 -1.216 2.2227 4.96962e-016 9.93923e-016 -9.54166e-015 0.9571 1.114 1.7695 4.96962e-016 0 -6.36111e-015 4.1246 0.487 4.1451 6.95746e-016 2.18663e-015 -9.54166e-015 3.4052 -1.454 2.7682 1.98785e-016 9.93923e-016 -3.18055e-015 1.4531 -1.795 1.2713 5.96354e-016 3.97569e-016 -0 5.6954 0.21 2.1184 6.95746e-016 2.18663e-015 -9.54166e-015 3.9766 -1.54 2.3863 1.98785e-016 9.93923e-016 -3.18055e-015 1.4042 -1.926 1.125 5.96354e-016 3.97569e-016 -0 2.0956 0.66 -0.3894 4.96962e-016 0 -6.36111e-015 5.0395 -0.09 2.4971 6.95746e-016 2.18663e-015 -9.54166e-015 3.7921 -1.552 1.4806 1.98785e-016 9.93923e-016 -3.18055e-015 1.4655 -1.808 0.9609 5.96354e-016 3.97569e-016 -0 4.9141 -1.269 0.3591 6.95746e-016 2.18663e-015 -9.54166e-015 3.1477 -1.685 0.8462 1.98785e-016 9.93923e-016 -3.18055e-015 0.8055 -1.585 0.7955 5.96354e-016 3.97569e-016 -0 -1.7069 20.075 5.0056 0.168071 1.59823 14.6975 -13.6458 -0.047 -4.849 -12.1582 -34.1182 -66.2689 -28.3255 -0.9759 2.2888 42.9385 19.8728 -22.0144 -22.1583 -0.53 10.8316 15.4799 3.23083 -2.99177 -0.786 0.112 2.5817 -1.18677e-006 -5.2583e-007 -1.12797e-006 -0.3601 -0.878 4.2331 -2.64498e-006 2.50721e-006 -6.59449e-007 -1.8127 -1.216 2.2227 1.03368e-014 6.36111e-015 3.18055e-015 -0.9571 1.114 1.7695 4.77083e-015 0 -0 -4.1246 0.487 4.1451 -1.18677e-006 -5.2583e-007 -1.12797e-006 -3.4052 -1.454 2.7682 -2.64498e-006 2.50721e-006 -6.59449e-007 -1.4531 -1.795 1.2713 -7.15625e-015 1.59028e-015 -3.18055e-015 -5.6954 0.21 2.1184 -1.18677e-006 -5.2583e-007 -1.12797e-006 -3.9766 -1.54 2.3863 -2.64498e-006 2.50721e-006 -6.59449e-007 -1.4042 -1.926 1.125 -7.15625e-015 1.59028e-015 -3.18055e-015 -2.0956 0.66 -0.3894 4.77083e-015 0 -0 -5.0395 -0.09 2.4971 -1.18677e-006 -5.2583e-007 -1.12797e-006 -3.7921 -1.552 1.4806 -2.64498e-006 2.50721e-006 -6.59449e-007 -1.4655 -1.808 0.9609 -7.15625e-015 1.59028e-015 -3.18055e-015 -4.9141 -1.269 0.3592 -1.18677e-006 -5.2583e-007 -1.12797e-006 -3.1477 -1.685 0.8462 -2.64498e-006 2.50721e-006 -6.59449e-007 -0.8055 -1.585 0.7955 -7.15625e-015 1.59028e-015 -3.18055e-015 8.367 -8.2066 0.5982 2.71688 -68.6115 24.7486 2.1923 -43.463 -0.4932 28.0978 62.2604 -25.796 0.7333 -45.8593 -2.6451 -2.07067 21.8783 -2.52186 -8.367 -8.2066 0.5982 108.037 -87.3254 135.021 -2.1923 -43.463 -0.4931 68.6959 41.2722 -71.9823 -0.7333 -45.8593 -2.6451 16.6454 9.54221 12.397 
-16.8059 0.230633 -10.6941 -90.0414 83.1361 0.0334362 2.77556e-017 -1.186 -1.5018 10.0781 7.05163 0.641791 0 9.964 0.2134 20.3103 14.1058 0.0192955 -8.88178e-016 13.134 -3.2573 20.3103 14.1058 0.0192721 8.88178e-016 20.686 -1.6905 -3.44865 -16.4154 19.8304 0 7.238 -0.1237 -1.13802 -42.3969 7.82255 1.7069 20.075 5.0056 3.81021 3.05753 41.1227 13.6458 -0.047 -4.849 3.07412 32.2762 -26.4518 28.3255 -0.9759 2.2888 46.3087 -36.7395 -39.0554 22.1583 -0.53 10.8316 16.4335 -4.87335 12.9858 0.786 0.112 2.5817 2.69527e-007 1.35622e-007 4.82024e-009 0.3601 -0.878 4.2331 -2.69527e-007 -1.35622e-007 -4.82025e-009 1.8127 -1.216 2.2227 2.69527e-007 1.35622e-007 4.82024e-009 0.9571 1.114 1.7695 -1.98785e-016 1.98785e-016 3.18055e-015 4.1246 0.487 4.1451 2.69527e-007 1.35622e-007 4.82026e-009 3.4052 -1.454 2.7682 -2.69527e-007 -1.35622e-007 -4.82025e-009 1.4531 -1.795 1.2713 2.69527e-007 1.35622e-007 4.82024e-009 5.6954 0.21 2.1184 2.69527e-007 1.35622e-007 4.82026e-009 3.9766 -1.54 2.3863 -2.69527e-007 -1.35622e-007 -4.82025e-009 1.4042 -1.926 1.125 2.69527e-007 1.35622e-007 4.82024e-009 2.0956 0.66 -0.3894 -1.98785e-016 1.98785e-016 3.18055e-015 5.0395 -0.09 2.4971 2.69527e-007 1.35622e-007 4.82026e-009 3.7921 -1.552 1.4806 -2.69527e-007 -1.35622e-007 -4.82025e-009 1.4655 -1.808 0.9609 2.69527e-007 1.35622e-007 4.82024e-009 4.9141 -1.269 0.3591 2.69527e-007 1.35622e-007 4.82026e-009 3.1477 -1.685 0.8462 -2.69527e-007 -1.35622e-007 -4.82025e-009 0.8055 -1.585 0.7955 2.69527e-007 1.35622e-007 4.82024e-009 -1.7069 20.075 5.0056 0.804226 1.92131 14.1174 -13.6458 -0.047 -4.849 -12.1528 -34.213 -66.1539 -28.3255 -0.9759 2.2888 42.6037 19.2497 -22.0216 -22.1583 -0.53 10.8316 15.8673 3.39405 -3.01194 -0.786 0.112 2.5817 -1.1655e-007 -3.89537e-007 1.2862e-007 -0.3601 -0.878 4.2331 -7.95139e-015 -3.18055e-015 3.18055e-015 -1.8127 -1.216 2.2227 -1.1655e-007 -3.89537e-007 1.2862e-007 -0.9571 1.114 1.7695 -1.03368e-014 0 -3.18055e-015 -4.1246 0.487 4.1451 -1.1655e-007 -3.89537e-007 1.2862e-007 -3.4052 -1.454 2.7682 -8.82781e-032 1.59028e-015 3.18055e-015 -1.4531 -1.795 1.2713 -1.1655e-007 -3.89537e-007 1.2862e-007 -5.6954 0.21 2.1184 -1.1655e-007 -3.89537e-007 1.2862e-007 -3.9766 -1.54 2.3863 -8.82781e-032 1.59028e-015 3.18055e-015 -1.4042 -1.926 1.125 -1.1655e-007 -3.89537e-007 1.2862e-007 -2.0956 0.66 -0.3894 -1.03368e-014 0 -3.18055e-015 -5.0395 -0.09 2.4971 -1.1655e-007 -3.89537e-007 1.2862e-007 -3.7921 -1.552 1.4806 -8.82781e-032 1.59028e-015 3.18055e-015 -1.4655 -1.808 0.9609 -1.1655e-007 -3.89537e-007 1.2862e-007 -4.9141 -1.269 0.3592 -1.1655e-007 -3.89537e-007 1.2862e-007 -3.1477 -1.685 0.8462 -8.82781e-032 1.59028e-015 3.18055e-015 -0.8055 -1.585 0.7955 -1.1655e-007 -3.89537e-007 1.2862e-007 8.367 -8.2066 0.5982 2.79743 -68.7706 24.8508 2.1923 -43.463 -0.4932 27.9332 62.1609 -25.6514 0.7333 -45.8593 -2.6451 -2.06152 21.8793 -2.53175 -8.367 -8.2066 0.5982 111.576 -87.3333 138.481 -2.1923 -43.463 -0.4931 68.7154 41.2772 -71.9977 -0.7333 -45.8593 -2.6451 16.5705 9.59645 12.5007 
-16.8309 0.230461 -10.6264 -90.0409 83.3864 0.0330634 -2.77556e-017 -1.186 -1.5018 10.0901 6.9522 0.731695 4.44089e-016 9.964 0.2134 20.3182 13.9245 0.216615 1.77636e-015 13.134 -3.2573 20.3182 13.9245 0.2166 -1.77636e-015 20.686 -1.6905 -3.35923 -16.3422 19.7536 5.32907e-015 7.238 -0.1237 -1.18758 -42.2677 7.67158 1.7069 20.075 5.0056 3.73129 2.96781 40.6131 13.6458 -0.047 -4.849 3.07412 32.2762 -26.4518 28.3255 -0.9759 2.2888 46.356 -36.811 -39.1385 22.1583 -0.53 10.8316 16.4335 -4.87335 12.9858 0.786 0.112 2.5817 -1.98785e-016 -5.96354e-016 9.54166e-015 0.3601 -0.878 4.2331 -3.97569e-016 -1.98785e-016 6.36111e-015 1.8127 -1.216 2.2227 -5.96354e-016 -3.97569e-016 -0 0.9571 1.114 1.7695 -1.98785e-016 -5.96354e-016 9.54166e-015 4.1246 0.487 4.1451 -0 0 1.90833e-014 3.4052 -1.454 2.7682 3.97569e-016 -1.98785e-016 3.18055e-015 1.4531 -1.795 1.2713 -5.96354e-016 -5.96354e-016 9.54166e-015 5.6954 0.21 2.1184 -0 0 1.90833e-014 3.9766 -1.54 2.3863 3.97569e-016 -1.98785e-016 3.18055e-015 1.4042 -1.926 1.125 -5.96354e-016 -5.96354e-016 9.54166e-015 2.0956 0.66 -0.3894 -1.98785e-016 -5.96354e-016 9.54166e-015 5.0395 -0.09 2.4971 -0 0 1.90833e-014 3.7921 -1.552 1.4806 3.97569e-016 -1.98785e-016 3.18055e-015 1.4655 -1.808 0.9609 -5.96354e-016 -5.96354e-016 9.54166e-015 4.9141 -1.269 0.3591 -0 0 1.90833e-014 3.1477 -1.685 0.8462 3.97569e-016 -1.98785e-016 3.18055e-015 0.8055 -1.585 0.7955 -5.96354e-016 -5.96354e-016 9.54166e-015 -1.7069 20.075 5.0056 1.44355 2.2378 13.5338 -13.6458 -0.047 -4.849 -12.1472 -34.3077 -66.0389 -28.3255 -0.9759 2.2888 42.2619 18.6386 -22.0277 -22.1583 -0.53 10.8316 16.2549 3.55712 -3.03321 -0.786 0.112 2.5817 1.14627e-007 3.89212e-007 -1.31361e-007 -0.3601 -0.878 4.2331 -1.14627e-007 -3.89211e-007 1.31361e-007 -1.8127 -1.216 2.2227 2.29254e-007 7.78423e-007 -2.62721e-007 -0.9571 1.114 1.7695 0 3.18055e-015 -0 -4.1246 0.487 4.1451 1.14627e-007 3.89211e-007 -1.31361e-007 -3.4052 -1.454 2.7682 -1.14627e-007 -3.89211e-007 1.31361e-007 -1.4531 -1.795 1.2713 2.29254e-007 7.78423e-007 -2.62721e-007 -5.6954 0.21 2.1184 1.14627e-007 3.89211e-007 -1.31361e-007 -3.9766 -1.54 2.3863 -1.14627e-007 -3.89211e-007 1.31361e-007 -1.4042 -1.926 1.125 2.29254e-007 7.78423e-007 -2.62721e-007 -2.0956 0.66 -0.3894 0 3.18055e-015 -0 -5.0395 -0.09 2.4971 1.14627e-007 3.89211e-007 -1.31361e-007 -3.7921 -1.552 1.4806 -1.14627e-007 -3.89211e-007 1.31361e-007 -1.4655 -1.808 0.9609 2.29254e-007 7.78423e-007 -2.62721e-007 -4.9141 -1.269 0.3592 1.14627e-007 3.89211e-007 -1.31361e-007 -3.1477 -1.685 0.8462 -1.14627e-007 -3.89211e-007 1.31361e-007 -0.8055 -1.585 0.7955 2.29254e-007 7.78423e-007 -2.62721e-007 8.367 -8.2066 0.5982 2.87945 -68.9296 24.9544 2.1923 -43.463 -0.4932 27.7696 62.0613 -25.5079 0.7333 -45.8593 -2.6451 -2.05231 21.8802 -2.54164 -8.367 -8.2066 0.5982 115.124 -87.3314 141.949 -2.1923 -43.463 -0.4931 68.735 41.2822 -72.0132 -0.7333 -45.8593 -2.6451 16.4956 9.65057 12.6046 
-16.8559 0.23029 -10.5588 -90.0402 83.6367 0.0326632 2.77556e-017 -1.186 -1.5018 10.1019 6.85298 0.821666 4.44089e-016 9.964 0.2134 20.3261 13.7432 0.41396 0 13.134 -3.2573 20.3261 13.7432 0.413983 -8.88178e-016 20.686 -1.6905 -3.26979 -16.2692 19.6767 1.77636e-015 7.238 -0.1237 -1.23659 -42.1383 7.52102 1.7069 20.075 5.0056 3.65158 2.87882 40.1035 13.6458 -0.047 -4.849 3.07412 32.2762 -26.4518 28.3255 -0.9759 2.2888 46.403 -36.8825 -39.2217 22.1583 -0.53 10.8316 16.4335 -4.87335 12.9858 0.786 0.112 2.5817 -1.24645e-008 -2.9643e-007 1.03001e-006 0.3601 -0.878 4.2331 4.0523e-007 -1.33725e-007 -4.6313e-009 1.8127 -1.216 2.2227 -5.43979e-008 9.38156e-008 -1.03543e-006 0.9571 1.114 1.7695 -1.98785e-016 -1.98785e-016 -0 4.1246 0.487 4.1451 -1.24645e-008 -2.9643e-007 1.03001e-006 3.4052 -1.454 2.7682 4.0523e-007 -1.33725e-007 -4.63129e-009 1.4531 -1.795 1.2713 -5.43979e-008 9.38156e-008 -1.03543e-006 5.6954 0.21 2.1184 -1.24645e-008 -2.9643e-007 1.03001e-006 3.9766 -1.54 2.3863 4.0523e-007 -1.33725e-007 -4.63129e-009 1.4042 -1.926 1.125 -5.43979e-008 9.38156e-008 -1.03543e-006 2.0956 0.66 -0.3894 -1.98785e-016 -1.98785e-016 -0 5.0395 -0.09 2.4971 -1.24645e-008 -2.9643e-007 1.03001e-006 3.7921 -1.552 1.4806 4.0523e-007 -1.33725e-007 -4.63129e-009 1.4655 -1.808 0.9609 -5.43979e-008 9.38156e-008 -1.03543e-006 4.9141 -1.269 0.3591 -1.24645e-008 -2.9643e-007 1.03001e-006 3.1477 -1.685 0.8462 4.0523e-007 -1.33725e-007 -4.63129e-009 0.8055 -1.585 0.7955 -5.43979e-008 9.38156e-008 -1.03543e-006 -1.7069 20.075 5.0056 2.08591 2.54763 12.9469 -13.6458 -0.047 -4.849 -12.1413 -34.4024 -65.9237 -28.3255 -0.9759 2.2888 41.9134 18.0394 -22.0326 -22.1583 -0.53 10.8316 16.6426 3.72004 -3.05556 -0.786 0.112 2.5817 6.36111e-015 -4.77083e-015 -0 -0.3601 -0.878 4.2331 1.12702e-007 3.88884e-007 -1.34023e-007 -1.8127 -1.216 2.2227 -8.74653e-015 -1.59028e-015 -0 -0.9571 1.114 1.7695 6.36111e-015 -3.18055e-015 -0 -4.1246 0.487 4.1451 7.95139e-016 0 9.54166e-015 -3.4052 -1.454 2.7682 1.12702e-007 3.88884e-007 -1.34023e-007 -1.4531 -1.795 1.2713 -7.95139e-015 0 6.36111e-015 -5.6954 0.21 2.1184 7.95139e-016 0 9.54166e-015 -3.9766 -1.54 2.3863 1.12702e-007 3.88884e-007 -1.34023e-007 -1.4042 -1.926 1.125 -7.95139e-015 0 6.36111e-015 -2.0956 0.66 -0.3894 6.36111e-015 -3.18055e-015 -0 -5.0395 -0.09 2.4971 7.95139e-016 0 9.54166e-015 -3.7921 -1.552 1.4806 1.12702e-007 3.88884e-007 -1.34023e-007 -1.4655 -1.808 0.9609 -7.95139e-015 0 6.36111e-015 -4.9141 -1.269 0.3592 7.95139e-016 0 9.54166e-015 -3.1477 -1.685 0.8462 1.12702e-007 3.88884e-007 -1.34023e-007 -0.8055 -1.585 0.7955 -7.95139e-015 0 6.36111e-015 8.367 -8.2066 0.5982 2.96286 -69.0885 25.0593 2.1923 -43.463 -0.4932 27.607 61.9615 -25.3654 0.7333 -45.8593 -2.6451 -2.04314 21.8813 -2.55153 -8.367 -8.2066 0.5982 118.651 -87.3194 145.396 -2.1923 -43.463 -0.4931 68.7544 41.2872 -72.0286 -0.7333 -45.8593 -2.6451 16.4206 9.70462 12.7085 
